<svg width="24" height="24" viewBox="0 0 24 24" fill="none" xmlns="http://www.w3.org/2000/svg">
<g id="user-c-frame 2" clip-path="url(#clip0_4_166)">
<g id="Group">
<path id="Vector" d="M5.14014 20.599C5.78914 17.404 8.61414 15 12.0001 15C15.3861 15 18.2051 17.399 18.8581 20.589" stroke="#0A0F15" stroke-width="2" stroke-linecap="round" stroke-linejoin="round"/>
<path id="Vector_2" d="M12 23C18.0751 23 23 18.0751 23 12C23 5.92487 18.0751 1 12 1C5.92487 1 1 5.92487 1 12C1 18.0751 5.92487 23 12 23Z" stroke="#0A0F15" stroke-width="2" stroke-linecap="round" stroke-linejoin="round"/>
<path id="Vector_3" d="M12 12C13.6569 12 15 10.6569 15 9C15 7.34315 13.6569 6 12 6C10.3431 6 9 7.34315 9 9C9 10.6569 10.3431 12 12 12Z" stroke="#0A0F15" stroke-width="2" stroke-linecap="round" stroke-linejoin="round"/>
</g>
</g>
<defs>
<clipPath id="clip0_4_166">
<rect width="24" height="24" fill="white"/>
</clipPath>
</defs>
</svg>
