<svg width="24" height="24" viewBox="0 0 24 24" fill="none" xmlns="http://www.w3.org/2000/svg">
<path d="M11 11H0V0H11V11ZM2 9H9V2H2V9Z" fill="#0A0F15"/>
<path d="M24 11H13V0H24V11ZM15 9H22V2H15V9Z" fill="#0A0F15"/>
<path d="M11 24H0V13H11V24ZM2 22H9V15H2V22Z" fill="#0A0F15"/>
<path d="M24 20H22V15H20V18H14V13H16V16H18V13H24V20Z" fill="#0A0F15"/>
<path d="M24 24H14V20H16V22H24V24Z" fill="#0A0F15"/>
<path d="M7 4H4V7H7V4Z" fill="#0A0F15"/>
<path d="M20 4H17V7H20V4Z" fill="#0A0F15"/>
<path d="M7 17H4V20H7V17Z" fill="#0A0F15"/>
</svg>
